# Blender 3.4.1
# www.blender.org
mtllib untitled.mtl
o Curve
v -0.077270 0.000000 -0.076737
v -0.077202 0.000000 -0.076792
v -0.077007 0.000000 -0.076941
v -0.076695 0.000000 -0.077161
v -0.076277 0.000000 -0.077429
v -0.075766 0.000000 -0.077719
v -0.075172 0.000000 -0.078010
v -0.074506 0.000000 -0.078277
v -0.073780 0.000000 -0.078497
v -0.073004 0.000000 -0.078645
v -0.072191 0.000000 -0.078700
v -0.071351 0.000000 -0.078636
v -0.070496 0.000000 -0.078430
v -0.069683 0.000000 -0.078090
v -0.068956 0.000000 -0.077652
v -0.068310 0.000000 -0.077136
v -0.067740 0.000000 -0.076562
v -0.067237 0.000000 -0.075948
v -0.066798 0.000000 -0.075316
v -0.066415 0.000000 -0.074684
v -0.066082 0.000000 -0.074072
v -0.065794 0.000000 -0.073501
v -0.065544 0.000000 -0.072989
v -0.065326 0.000000 -0.072556
v -0.065134 0.000000 -0.072222
v -0.064674 0.000000 -0.071958
v -0.063717 0.000000 -0.071719
v -0.062356 0.000000 -0.071504
v -0.060686 0.000000 -0.071313
v -0.058799 0.000000 -0.071145
v -0.056788 0.000000 -0.070998
v -0.054747 0.000000 -0.070873
v -0.052769 0.000000 -0.070768
v -0.050948 0.000000 -0.070682
v -0.049376 0.000000 -0.070614
v -0.048147 0.000000 -0.070563
v -0.047354 0.000000 -0.070529
v -0.046854 0.000000 -0.070519
v -0.046434 0.000000 -0.070535
v -0.046080 0.000000 -0.070567
v -0.045780 0.000000 -0.070605
v -0.045519 0.000000 -0.070639
v -0.045284 0.000000 -0.070661
v -0.045062 0.000000 -0.070659
v -0.044840 0.000000 -0.070625
v -0.044605 0.000000 -0.070548
v -0.044343 0.000000 -0.070419
v -0.044040 0.000000 -0.070228
v -0.043685 0.000000 -0.069965
v -0.043319 0.000000 -0.069606
v -0.042993 0.000000 -0.069143
v -0.042700 0.000000 -0.068589
v -0.042435 0.000000 -0.067959
v -0.042190 0.000000 -0.067264
v -0.041962 0.000000 -0.066520
v -0.041742 0.000000 -0.065741
v -0.041527 0.000000 -0.064939
v -0.041309 0.000000 -0.064128
v -0.041082 0.000000 -0.063323
v -0.040841 0.000000 -0.062536
v -0.040580 0.000000 -0.061782
v -0.040284 0.000000 -0.060824
v -0.039948 0.000000 -0.059473
v -0.039583 0.000000 -0.057815
v -0.039198 0.000000 -0.055935
v -0.038804 0.000000 -0.053919
v -0.038411 0.000000 -0.051851
v -0.038028 0.000000 -0.049818
v -0.037666 0.000000 -0.047905
v -0.037336 0.000000 -0.046197
v -0.037046 0.000000 -0.044780
v -0.036807 0.000000 -0.043738
v -0.036629 0.000000 -0.043159
v -0.036436 0.000000 -0.042667
v -0.036146 0.000000 -0.041872
v -0.035763 0.000000 -0.040838
v -0.035291 0.000000 -0.039626
v -0.034733 0.000000 -0.038300
v -0.034093 0.000000 -0.036920
v -0.033374 0.000000 -0.035550
v -0.032581 0.000000 -0.034252
v -0.031715 0.000000 -0.033088
v -0.030782 0.000000 -0.032121
v -0.029785 0.000000 -0.031413
v -0.028727 0.000000 -0.031026
v -0.027330 0.000000 -0.030819
v -0.025376 0.000000 -0.030628
v -0.022954 0.000000 -0.030477
v -0.020154 0.000000 -0.030390
v -0.017064 0.000000 -0.030393
v -0.013774 0.000000 -0.030509
v -0.010375 0.000000 -0.030764
v -0.006955 0.000000 -0.031181
v -0.003603 0.000000 -0.031787
v -0.000411 0.000000 -0.032605
v 0.002534 0.000000 -0.033659
v 0.005141 0.000000 -0.034976
v 0.008813 0.000000 -0.036963
v 0.014697 0.000000 -0.039859
v 0.022318 0.000000 -0.043437
v 0.031200 0.000000 -0.047467
v 0.040868 0.000000 -0.051721
v 0.050847 0.000000 -0.055970
v 0.060663 0.000000 -0.059986
v 0.069839 0.000000 -0.063539
v 0.077902 0.000000 -0.066401
v 0.084376 0.000000 -0.068343
v 0.088785 0.000000 -0.069137
v 0.090656 0.000000 -0.068554
v 0.091186 0.000000 -0.065614
v 0.091497 0.000000 -0.063116
v 0.091631 0.000000 -0.060984
v 0.091633 0.000000 -0.059142
v 0.091546 0.000000 -0.057514
v 0.091412 0.000000 -0.056023
v 0.091276 0.000000 -0.054594
v 0.091180 0.000000 -0.053149
v 0.091168 0.000000 -0.051614
v 0.091283 0.000000 -0.049911
v 0.091568 0.000000 -0.047964
v 0.092067 0.000000 -0.045698
v 0.093049 0.000000 -0.042140
v 0.094189 0.000000 -0.038381
v 0.095448 0.000000 -0.034498
v 0.096786 0.000000 -0.030570
v 0.098164 0.000000 -0.026673
v 0.099542 0.000000 -0.022884
v 0.100881 0.000000 -0.019281
v 0.102142 0.000000 -0.015941
v 0.103285 0.000000 -0.012942
v 0.104271 0.000000 -0.010360
v 0.105060 0.000000 -0.008273
v 0.105614 0.000000 -0.006759
v 0.105988 0.000000 -0.005479
v 0.106273 0.000000 -0.004068
v 0.106479 0.000000 -0.002566
v 0.106615 0.000000 -0.001014
v 0.106693 0.000000 0.000550
v 0.106723 0.000000 0.002085
v 0.106714 0.000000 0.003552
v 0.106678 0.000000 0.004912
v 0.106624 0.000000 0.006124
v 0.106563 0.000000 0.007148
v 0.106505 0.000000 0.007946
v 0.106461 0.000000 0.008478
v 0.106419 0.000000 0.008954
v 0.106367 0.000000 0.009589
v 0.106312 0.000000 0.010350
v 0.106261 0.000000 0.011206
v 0.106218 0.000000 0.012122
v 0.106193 0.000000 0.013068
v 0.106189 0.000000 0.014009
v 0.106215 0.000000 0.014913
v 0.106277 0.000000 0.015748
v 0.106381 0.000000 0.016480
v 0.106534 0.000000 0.017078
v 0.106743 0.000000 0.017507
v 0.106691 0.000000 0.017989
v 0.106112 0.000000 0.018729
v 0.105086 0.000000 0.019678
v 0.103692 0.000000 0.020786
v 0.102013 0.000000 0.022003
v 0.100126 0.000000 0.023278
v 0.098114 0.000000 0.024563
v 0.096055 0.000000 0.025805
v 0.094031 0.000000 0.026956
v 0.092120 0.000000 0.027965
v 0.090404 0.000000 0.028783
v 0.088963 0.000000 0.029358
v 0.087665 0.000000 0.029808
v 0.086274 0.000000 0.030275
v 0.084710 0.000000 0.030751
v 0.082894 0.000000 0.031229
v 0.080746 0.000000 0.031700
v 0.078186 0.000000 0.032158
v 0.075135 0.000000 0.032593
v 0.071514 0.000000 0.032997
v 0.067243 0.000000 0.033364
v 0.062242 0.000000 0.033684
v 0.056432 0.000000 0.033951
v 0.049733 0.000000 0.034155
v 0.042726 0.000000 0.034307
v 0.036021 0.000000 0.034445
v 0.029586 0.000000 0.034607
v 0.023387 0.000000 0.034833
v 0.017392 0.000000 0.035159
v 0.011566 0.000000 0.035624
v 0.005878 0.000000 0.036267
v 0.000293 0.000000 0.037124
v -0.005221 0.000000 0.038235
v -0.010698 0.000000 0.039637
v -0.016170 0.000000 0.041368
v -0.021671 0.000000 0.043467
v -0.027170 0.000000 0.044963
v -0.032058 0.000000 0.046089
v -0.036400 0.000000 0.046881
v -0.040265 0.000000 0.047379
v -0.043719 0.000000 0.047617
v -0.046829 0.000000 0.047634
v -0.049663 0.000000 0.047466
v -0.052287 0.000000 0.047151
v -0.054768 0.000000 0.046726
v -0.057175 0.000000 0.046227
v -0.059573 0.000000 0.045693
v -0.062029 0.000000 0.045160
v -0.064517 0.000000 0.044561
v -0.066944 0.000000 0.043763
v -0.069281 0.000000 0.042700
v -0.071499 0.000000 0.041307
v -0.073569 0.000000 0.039518
v -0.075463 0.000000 0.037269
v -0.077151 0.000000 0.034494
v -0.078606 0.000000 0.031129
v -0.079797 0.000000 0.027107
v -0.080696 0.000000 0.022364
v -0.081274 0.000000 0.016834
v -0.081503 0.000000 0.010453
v -0.081438 0.000000 0.004004
v -0.081187 0.000000 -0.001737
v -0.080800 0.000000 -0.006847
v -0.080325 0.000000 -0.011405
v -0.079811 0.000000 -0.015486
v -0.079307 0.000000 -0.019169
v -0.078862 0.000000 -0.022531
v -0.078526 0.000000 -0.025650
v -0.078347 0.000000 -0.028602
v -0.078375 0.000000 -0.031465
v -0.078658 0.000000 -0.034316
v -0.079245 0.000000 -0.037233
v -0.079960 0.000000 -0.040366
v -0.080578 0.000000 -0.043764
v -0.081082 0.000000 -0.047356
v -0.081452 0.000000 -0.051073
v -0.081668 0.000000 -0.054841
v -0.081711 0.000000 -0.058592
v -0.081563 0.000000 -0.062253
v -0.081204 0.000000 -0.065754
v -0.080614 0.000000 -0.069024
v -0.079774 0.000000 -0.071992
v -0.078666 0.000000 -0.074587
vn -0.0000 1.0000 -0.0000
vt 0.000000 0.000000
vt 0.004184 0.000000
vt 0.008368 0.000000
vt 0.012552 0.000000
vt 0.016736 0.000000
vt 0.020921 0.000000
vt 0.025105 0.000000
vt 0.029289 0.000000
vt 0.033473 0.000000
vt 0.037657 0.000000
vt 0.041841 0.000000
vt 0.046025 0.000000
vt 0.050209 0.000000
vt 0.054393 0.000000
vt 0.058577 0.000000
vt 0.062762 0.000000
vt 0.066946 0.000000
vt 0.071130 0.000000
vt 0.075314 0.000000
vt 0.079498 0.000000
vt 0.083682 0.000000
vt 0.087866 0.000000
vt 0.092050 0.000000
vt 0.096234 0.000000
vt 0.100418 0.000000
vt 0.104603 0.000000
vt 0.108787 0.000000
vt 0.112971 0.000000
vt 0.117155 0.000000
vt 0.121339 0.000000
vt 0.125523 0.000000
vt 0.129707 0.000000
vt 0.133891 0.000000
vt 0.138075 0.000000
vt 0.142259 0.000000
vt 0.146444 0.000000
vt 0.150628 0.000000
vt 0.154812 0.000000
vt 0.158996 0.000000
vt 0.163180 0.000000
vt 0.167364 0.000000
vt 0.171548 0.000000
vt 0.175732 0.000000
vt 0.179916 0.000000
vt 0.184100 0.000000
vt 0.188285 0.000000
vt 0.192469 0.000000
vt 0.196653 0.000000
vt 0.200837 0.000000
vt 0.205021 0.000000
vt 0.209205 0.000000
vt 0.213389 0.000000
vt 0.217573 0.000000
vt 0.221757 0.000000
vt 0.225941 0.000000
vt 0.230126 0.000000
vt 0.234310 0.000000
vt 0.238494 0.000000
vt 0.242678 0.000000
vt 0.246862 0.000000
vt 0.251046 0.000000
vt 0.255230 0.000000
vt 0.259414 0.000000
vt 0.263598 0.000000
vt 0.267782 0.000000
vt 0.271967 0.000000
vt 0.276151 0.000000
vt 0.280335 0.000000
vt 0.284519 0.000000
vt 0.288703 0.000000
vt 0.292887 0.000000
vt 0.297071 0.000000
vt 0.301255 0.000000
vt 0.305439 0.000000
vt 0.309623 0.000000
vt 0.313808 0.000000
vt 0.317992 0.000000
vt 0.322176 0.000000
vt 0.326360 0.000000
vt 0.330544 0.000000
vt 0.334728 0.000000
vt 0.338912 0.000000
vt 0.343096 0.000000
vt 0.347280 0.000000
vt 0.351464 0.000000
vt 0.355649 0.000000
vt 0.359833 0.000000
vt 0.364017 0.000000
vt 0.368201 0.000000
vt 0.372385 0.000000
vt 0.376569 0.000000
vt 0.380753 0.000000
vt 0.384937 0.000000
vt 0.389121 0.000000
vt 0.393305 0.000000
vt 0.397490 0.000000
vt 0.401674 0.000000
vt 0.405858 0.000000
vt 0.410042 0.000000
vt 0.414226 0.000000
vt 0.418410 0.000000
vt 0.422594 0.000000
vt 0.426778 0.000000
vt 0.430962 0.000000
vt 0.435146 0.000000
vt 0.439331 0.000000
vt 0.443515 0.000000
vt 0.447699 0.000000
vt 0.451883 0.000000
vt 0.456067 0.000000
vt 0.460251 0.000000
vt 0.464435 0.000000
vt 0.468619 0.000000
vt 0.472803 0.000000
vt 0.476987 0.000000
vt 0.481172 0.000000
vt 0.485356 0.000000
vt 0.489540 0.000000
vt 0.493724 0.000000
vt 0.497908 0.000000
vt 0.502092 0.000000
vt 0.506276 0.000000
vt 0.510460 0.000000
vt 0.514644 0.000000
vt 0.518828 0.000000
vt 0.523013 0.000000
vt 0.527197 0.000000
vt 0.531381 0.000000
vt 0.535565 0.000000
vt 0.539749 0.000000
vt 0.543933 0.000000
vt 0.548117 0.000000
vt 0.552301 0.000000
vt 0.556485 0.000000
vt 0.560669 0.000000
vt 0.564854 0.000000
vt 0.569038 0.000000
vt 0.573222 0.000000
vt 0.577406 0.000000
vt 0.581590 0.000000
vt 0.585774 0.000000
vt 0.589958 0.000000
vt 0.594142 0.000000
vt 0.598326 0.000000
vt 0.602510 0.000000
vt 0.606695 0.000000
vt 0.610879 0.000000
vt 0.615063 0.000000
vt 0.619247 0.000000
vt 0.623431 0.000000
vt 0.627615 0.000000
vt 0.631799 0.000000
vt 0.635983 0.000000
vt 0.640167 0.000000
vt 0.644351 0.000000
vt 0.648536 0.000000
vt 0.652720 0.000000
vt 0.656904 0.000000
vt 0.661088 0.000000
vt 0.665272 0.000000
vt 0.669456 0.000000
vt 0.673640 0.000000
vt 0.677824 0.000000
vt 0.682008 0.000000
vt 0.686192 0.000000
vt 0.690377 0.000000
vt 0.694561 0.000000
vt 0.698745 0.000000
vt 0.702929 0.000000
vt 0.707113 0.000000
vt 0.711297 0.000000
vt 0.715481 0.000000
vt 0.719665 0.000000
vt 0.723849 0.000000
vt 0.728033 0.000000
vt 0.732218 0.000000
vt 0.736402 0.000000
vt 0.740586 0.000000
vt 0.744770 0.000000
vt 0.748954 0.000000
vt 0.753138 0.000000
vt 0.757322 0.000000
vt 0.761506 0.000000
vt 0.765690 0.000000
vt 0.769874 0.000000
vt 0.774059 0.000000
vt 0.778243 0.000000
vt 0.782427 0.000000
vt 0.786611 0.000000
vt 0.790795 0.000000
vt 0.794979 0.000000
vt 0.799163 0.000000
vt 0.803347 0.000000
vt 0.807531 0.000000
vt 0.811715 0.000000
vt 0.815900 0.000000
vt 0.820084 0.000000
vt 0.824268 0.000000
vt 0.828452 0.000000
vt 0.832636 0.000000
vt 0.836820 0.000000
vt 0.841004 0.000000
vt 0.845188 0.000000
vt 0.849372 0.000000
vt 0.853557 0.000000
vt 0.857741 0.000000
vt 0.861925 0.000000
vt 0.866109 0.000000
vt 0.870293 0.000000
vt 0.874477 0.000000
vt 0.878661 0.000000
vt 0.882845 0.000000
vt 0.887029 0.000000
vt 0.891213 0.000000
vt 0.895397 0.000000
vt 0.899582 0.000000
vt 0.903766 0.000000
vt 0.907950 0.000000
vt 0.912134 0.000000
vt 0.916318 0.000000
vt 0.920502 0.000000
vt 0.924686 0.000000
vt 0.928870 0.000000
vt 0.933054 0.000000
vt 0.937239 0.000000
vt 0.941423 0.000000
vt 0.945607 0.000000
vt 0.949791 0.000000
vt 0.953975 0.000000
vt 0.958159 0.000000
vt 0.962343 0.000000
vt 0.966527 0.000000
vt 0.970711 0.000000
vt 0.974895 0.000000
vt 0.979079 0.000000
vt 0.983264 0.000000
vt 0.987448 0.000000
vt 0.991632 0.000000
vt 0.995816 0.000000
vt 1.000000 0.000000
s 0
usemtl 
f 10/10/1 12/12/1 11/11/1
f 9/9/1 12/12/1 10/10/1
f 9/9/1 13/13/1 12/12/1
f 8/8/1 13/13/1 9/9/1
f 8/8/1 14/14/1 13/13/1
f 7/7/1 14/14/1 8/8/1
f 7/7/1 15/15/1 14/14/1
f 6/6/1 15/15/1 7/7/1
f 5/5/1 15/15/1 6/6/1
f 5/5/1 16/16/1 15/15/1
f 4/4/1 16/16/1 5/5/1
f 3/3/1 16/16/1 4/4/1
f 3/3/1 17/17/1 16/16/1
f 2/2/1 17/17/1 3/3/1
f 1/1/1 17/17/1 2/2/1
f 240/240/1 17/17/1 1/1/1
f 240/240/1 18/18/1 17/17/1
f 240/240/1 19/19/1 18/18/1
f 240/240/1 20/20/1 19/19/1
f 240/240/1 21/21/1 20/20/1
f 239/239/1 21/21/1 240/240/1
f 239/239/1 22/22/1 21/21/1
f 239/239/1 23/23/1 22/22/1
f 239/239/1 24/24/1 23/23/1
f 239/239/1 25/25/1 24/24/1
f 239/239/1 26/26/1 25/25/1
f 238/238/1 26/26/1 239/239/1
f 238/238/1 27/27/1 26/26/1
f 238/238/1 28/28/1 27/27/1
f 238/238/1 29/29/1 28/28/1
f 238/238/1 30/30/1 29/29/1
f 238/238/1 31/31/1 30/30/1
f 238/238/1 32/32/1 31/31/1
f 238/238/1 33/33/1 32/32/1
f 238/238/1 34/34/1 33/33/1
f 238/238/1 35/35/1 34/34/1
f 42/42/1 44/44/1 43/43/1
f 42/42/1 45/45/1 44/44/1
f 41/41/1 45/45/1 42/42/1
f 41/41/1 46/46/1 45/45/1
f 238/238/1 36/36/1 35/35/1
f 40/40/1 46/46/1 41/41/1
f 39/39/1 46/46/1 40/40/1
f 238/238/1 37/37/1 36/36/1
f 39/39/1 47/47/1 46/46/1
f 38/38/1 47/47/1 39/39/1
f 238/238/1 38/38/1 37/37/1
f 238/238/1 47/47/1 38/38/1
f 238/238/1 48/48/1 47/47/1
f 238/238/1 49/49/1 48/48/1
f 238/238/1 50/50/1 49/49/1
f 238/238/1 51/51/1 50/50/1
f 238/238/1 52/52/1 51/51/1
f 107/107/1 109/109/1 108/108/1
f 237/237/1 52/52/1 238/238/1
f 237/237/1 53/53/1 52/52/1
f 107/107/1 110/110/1 109/109/1
f 106/106/1 110/110/1 107/107/1
f 237/237/1 54/54/1 53/53/1
f 237/237/1 55/55/1 54/54/1
f 237/237/1 56/56/1 55/55/1
f 105/105/1 110/110/1 106/106/1
f 236/236/1 56/56/1 237/237/1
f 236/236/1 57/57/1 56/56/1
f 105/105/1 111/111/1 110/110/1
f 236/236/1 58/58/1 57/57/1
f 236/236/1 59/59/1 58/58/1
f 104/104/1 111/111/1 105/105/1
f 236/236/1 60/60/1 59/59/1
f 104/104/1 112/112/1 111/111/1
f 236/236/1 61/61/1 60/60/1
f 235/235/1 61/61/1 236/236/1
f 235/235/1 62/62/1 61/61/1
f 104/104/1 113/113/1 112/112/1
f 235/235/1 63/63/1 62/62/1
f 103/103/1 113/113/1 104/104/1
f 235/235/1 64/64/1 63/63/1
f 103/103/1 114/114/1 113/113/1
f 234/234/1 64/64/1 235/235/1
f 234/234/1 65/65/1 64/64/1
f 103/103/1 115/115/1 114/114/1
f 103/103/1 116/116/1 115/115/1
f 102/102/1 116/116/1 103/103/1
f 234/234/1 66/66/1 65/65/1
f 233/233/1 66/66/1 234/234/1
f 102/102/1 117/117/1 116/116/1
f 233/233/1 67/67/1 66/66/1
f 102/102/1 118/118/1 117/117/1
f 233/233/1 68/68/1 67/67/1
f 101/101/1 118/118/1 102/102/1
f 101/101/1 119/119/1 118/118/1
f 232/232/1 68/68/1 233/233/1
f 101/101/1 120/120/1 119/119/1
f 232/232/1 69/69/1 68/68/1
f 101/101/1 121/121/1 120/120/1
f 232/232/1 70/70/1 69/69/1
f 100/100/1 121/121/1 101/101/1
f 231/231/1 70/70/1 232/232/1
f 231/231/1 71/71/1 70/70/1
f 100/100/1 122/122/1 121/121/1
f 231/231/1 72/72/1 71/71/1
f 230/230/1 72/72/1 231/231/1
f 230/230/1 73/73/1 72/72/1
f 99/99/1 122/122/1 100/100/1
f 230/230/1 74/74/1 73/73/1
f 230/230/1 75/75/1 74/74/1
f 99/99/1 123/123/1 122/122/1
f 230/230/1 76/76/1 75/75/1
f 230/230/1 77/77/1 76/76/1
f 229/229/1 77/77/1 230/230/1
f 98/98/1 123/123/1 99/99/1
f 229/229/1 78/78/1 77/77/1
f 98/98/1 124/124/1 123/123/1
f 229/229/1 79/79/1 78/78/1
f 228/228/1 79/79/1 229/229/1
f 97/97/1 124/124/1 98/98/1
f 228/228/1 80/80/1 79/79/1
f 228/228/1 81/81/1 80/80/1
f 96/96/1 124/124/1 97/97/1
f 96/96/1 125/125/1 124/124/1
f 227/227/1 81/81/1 228/228/1
f 227/227/1 82/82/1 81/81/1
f 95/95/1 125/125/1 96/96/1
f 227/227/1 83/83/1 82/82/1
f 94/94/1 125/125/1 95/95/1
f 227/227/1 84/84/1 83/83/1
f 93/93/1 125/125/1 94/94/1
f 226/226/1 84/84/1 227/227/1
f 226/226/1 85/85/1 84/84/1
f 92/92/1 125/125/1 93/93/1
f 226/226/1 86/86/1 85/85/1
f 226/226/1 87/87/1 86/86/1
f 91/91/1 125/125/1 92/92/1
f 226/226/1 88/88/1 87/87/1
f 91/91/1 126/126/1 125/125/1
f 90/90/1 126/126/1 91/91/1
f 226/226/1 89/89/1 88/88/1
f 89/89/1 126/126/1 90/90/1
f 226/226/1 126/126/1 89/89/1
f 225/225/1 126/126/1 226/226/1
f 225/225/1 127/127/1 126/126/1
f 224/224/1 127/127/1 225/225/1
f 224/224/1 128/128/1 127/127/1
f 223/223/1 128/128/1 224/224/1
f 223/223/1 129/129/1 128/128/1
f 222/222/1 129/129/1 223/223/1
f 222/222/1 130/130/1 129/129/1
f 221/221/1 130/130/1 222/222/1
f 221/221/1 131/131/1 130/130/1
f 220/220/1 131/131/1 221/221/1
f 220/220/1 132/132/1 131/131/1
f 220/220/1 133/133/1 132/132/1
f 219/219/1 133/133/1 220/220/1
f 219/219/1 134/134/1 133/133/1
f 219/219/1 135/135/1 134/134/1
f 219/219/1 136/136/1 135/135/1
f 219/219/1 137/137/1 136/136/1
f 218/218/1 137/137/1 219/219/1
f 218/218/1 138/138/1 137/137/1
f 218/218/1 139/139/1 138/138/1
f 218/218/1 140/140/1 139/139/1
f 218/218/1 141/141/1 140/140/1
f 217/217/1 141/141/1 218/218/1
f 217/217/1 142/142/1 141/141/1
f 217/217/1 143/143/1 142/142/1
f 217/217/1 144/144/1 143/143/1
f 217/217/1 145/145/1 144/144/1
f 217/217/1 146/146/1 145/145/1
f 217/217/1 147/147/1 146/146/1
f 217/217/1 148/148/1 147/147/1
f 217/217/1 149/149/1 148/148/1
f 216/216/1 149/149/1 217/217/1
f 216/216/1 150/150/1 149/149/1
f 216/216/1 151/151/1 150/150/1
f 216/216/1 152/152/1 151/151/1
f 216/216/1 153/153/1 152/152/1
f 216/216/1 154/154/1 153/153/1
f 216/216/1 155/155/1 154/154/1
f 216/216/1 156/156/1 155/155/1
f 215/215/1 156/156/1 216/216/1
f 215/215/1 157/157/1 156/156/1
f 215/215/1 158/158/1 157/157/1
f 215/215/1 159/159/1 158/158/1
f 215/215/1 160/160/1 159/159/1
f 215/215/1 161/161/1 160/160/1
f 215/215/1 162/162/1 161/161/1
f 215/215/1 163/163/1 162/162/1
f 214/214/1 163/163/1 215/215/1
f 214/214/1 164/164/1 163/163/1
f 214/214/1 165/165/1 164/164/1
f 214/214/1 166/166/1 165/165/1
f 214/214/1 167/167/1 166/166/1
f 213/213/1 167/167/1 214/214/1
f 213/213/1 168/168/1 167/167/1
f 213/213/1 169/169/1 168/168/1
f 213/213/1 170/170/1 169/169/1
f 213/213/1 171/171/1 170/170/1
f 213/213/1 172/172/1 171/171/1
f 213/213/1 173/173/1 172/172/1
f 212/212/1 173/173/1 213/213/1
f 212/212/1 174/174/1 173/173/1
f 212/212/1 175/175/1 174/174/1
f 212/212/1 176/176/1 175/175/1
f 212/212/1 177/177/1 176/176/1
f 212/212/1 178/178/1 177/177/1
f 212/212/1 179/179/1 178/178/1
f 212/212/1 180/180/1 179/179/1
f 212/212/1 181/181/1 180/180/1
f 212/212/1 182/182/1 181/181/1
f 212/212/1 183/183/1 182/182/1
f 212/212/1 184/184/1 183/183/1
f 211/211/1 184/184/1 212/212/1
f 211/211/1 185/185/1 184/184/1
f 211/211/1 186/186/1 185/185/1
f 211/211/1 187/187/1 186/186/1
f 211/211/1 188/188/1 187/187/1
f 211/211/1 189/189/1 188/188/1
f 211/211/1 190/190/1 189/189/1
f 210/210/1 190/190/1 211/211/1
f 210/210/1 191/191/1 190/190/1
f 209/209/1 191/191/1 210/210/1
f 209/209/1 192/192/1 191/191/1
f 208/208/1 192/192/1 209/209/1
f 208/208/1 193/193/1 192/192/1
f 207/207/1 193/193/1 208/208/1
f 207/207/1 194/194/1 193/193/1
f 206/206/1 194/194/1 207/207/1
f 205/205/1 194/194/1 206/206/1
f 205/205/1 195/195/1 194/194/1
f 204/204/1 195/195/1 205/205/1
f 203/203/1 195/195/1 204/204/1
f 203/203/1 196/196/1 195/195/1
f 202/202/1 196/196/1 203/203/1
f 201/201/1 196/196/1 202/202/1
f 201/201/1 197/197/1 196/196/1
f 200/200/1 197/197/1 201/201/1
f 200/200/1 198/198/1 197/197/1
f 199/199/1 198/198/1 200/200/1
